<svg width="20" height="20" viewBox="0 0 20 20" fill="none" xmlns="http://www.w3.org/2000/svg">
<path d="M10.9101 0.80841L13.1545 5.35469C13.3105 5.67089 13.6123 5.88999 13.9614 5.94061L18.9801 6.66969C19.8593 6.7975 20.21 7.87722 19.5741 8.49675L15.9426 12.0355C15.6902 12.2816 15.5748 12.6364 15.6346 12.9837L16.4917 17.9806C16.642 18.8558 15.723 19.523 14.9368 19.1101L10.4482 16.7511C10.136 16.5872 9.76285 16.5872 9.45071 16.7511L4.96203 19.1101C4.17587 19.5234 3.25688 18.8558 3.40714 17.9806L4.26428 12.9837C4.32406 12.6364 4.20866 12.2816 3.95629 12.0355L0.324755 8.49675C-0.311148 7.87681 0.0395948 6.79709 0.918735 6.66969L5.93747 5.94061C6.28656 5.88999 6.58832 5.67089 6.74439 5.35469L8.98873 0.80841C9.3814 0.0121055 10.5171 0.0121055 10.9101 0.80841Z" fill="#FBA229"/>
</svg>
